<svg width="100" height="100" viewBox="0 0 100 100" fill="none" xmlns="http://www.w3.org/2000/svg">
<path d="M44.0417 65.2917L64.3542 52.2708C65.3264 51.6458 65.8125 50.7778 65.8125 49.6667C65.8125 48.5556 65.3264 47.6875 64.3542 47.0625L44.0417 34.0417C43 33.3472 41.9403 33.2944 40.8625 33.8833C39.7847 34.4722 39.2472 35.3931 39.25 36.6458V62.6875C39.25 63.9375 39.7889 64.8583 40.8667 65.45C41.9444 66.0417 43.0028 65.9889 44.0417 65.2917ZM49.6667 91.3333C43.9028 91.3333 38.4861 90.2389 33.4167 88.05C28.3472 85.8611 23.9375 82.8931 20.1875 79.1458C16.4375 75.3958 13.4694 70.9861 11.2833 65.9167C9.09722 60.8472 8.00278 55.4306 8 49.6667C8 43.9028 9.09444 38.4861 11.2833 33.4167C13.4722 28.3472 16.4403 23.9375 20.1875 20.1875C23.9375 16.4375 28.3472 13.4694 33.4167 11.2833C38.4861 9.09722 43.9028 8.00278 49.6667 8C55.4306 8 60.8472 9.09444 65.9167 11.2833C70.9861 13.4722 75.3958 16.4403 79.1458 20.1875C82.8958 23.9375 85.8653 28.3472 88.0542 33.4167C90.2431 38.4861 91.3361 43.9028 91.3333 49.6667C91.3333 55.4306 90.2389 60.8472 88.05 65.9167C85.8611 70.9861 82.8931 75.3958 79.1458 79.1458C75.3958 82.8958 70.9861 85.8653 65.9167 88.0542C60.8472 90.2431 55.4306 91.3361 49.6667 91.3333Z" fill="black"/>
</svg>
